<svg width="1500" height="1500" viewBox="0 0 1500 1500" fill="none" xmlns="http://www.w3.org/2000/svg">
<g clip-path="url(#clip0_23_5)">
<path d="M1269.82 1248.05L1251.35 1248.05L1242.57 1176.82H1269.83L1269.82 1248.05Z" fill="#9E616A"/>
<path d="M1274.53 1265.95L1214.98 1265.95V1265.19C1214.98 1259.05 1217.43 1253.15 1221.77 1248.81C1226.12 1244.46 1232.01 1242.02 1238.16 1242.02H1238.16L1274.53 1242.02L1274.53 1265.95Z" fill="#2F2E41"/>
<path d="M1199.02 1248.05L1180.55 1248.05L1171.77 1176.82H1199.03L1199.02 1248.05Z" fill="#9E616A"/>
<path d="M1203.73 1265.95L1144.18 1265.95V1265.19C1144.18 1259.05 1146.63 1253.15 1150.97 1248.81C1155.32 1244.46 1161.21 1242.02 1167.36 1242.02H1167.36L1203.73 1242.02L1203.73 1265.95Z" fill="#2F2E41"/>
<path d="M401.144 1263.19V691.106C401.144 687.582 402.544 684.203 405.036 681.712C407.527 679.22 410.907 677.821 414.43 677.821H473.722C477.246 677.821 480.625 679.22 483.117 681.712C485.609 684.203 487.008 687.582 487.008 691.106V691.106V1264.68L401.144 1263.19Z" fill="#3F3D56"/>
<path d="M596.975 1264.99V810.099C596.975 806.576 598.375 803.197 600.866 800.705C603.358 798.214 606.737 796.814 610.261 796.814H669.553C673.077 796.814 676.456 798.214 678.948 800.705C681.439 803.197 682.839 806.576 682.839 810.099V810.099V1264.01L596.975 1264.99Z" fill="#3F3D56"/>
<path d="M248.997 724.543C248.124 724.543 247.27 724.29 246.538 723.815C245.806 723.34 245.227 722.663 244.872 721.866C244.516 721.069 244.399 720.186 244.534 719.324C244.669 718.462 245.051 717.658 245.634 717.008L443.883 495.904L638.988 605.453L835.254 267.304L1035.19 431.854C1035.65 432.231 1036.03 432.695 1036.31 433.219C1036.59 433.742 1036.77 434.316 1036.82 434.907C1036.88 435.498 1036.82 436.095 1036.65 436.662C1036.47 437.23 1036.19 437.759 1035.81 438.217C1035.44 438.676 1034.97 439.055 1034.45 439.334C1033.92 439.613 1033.35 439.786 1032.76 439.843C1032.17 439.901 1031.57 439.841 1031 439.667C1030.44 439.494 1029.91 439.21 1029.45 438.832L837.728 281.046L642.333 617.695L445.776 507.332L252.363 723.04C251.94 723.514 251.421 723.892 250.841 724.151C250.261 724.41 249.632 724.544 248.997 724.543V724.543Z" fill="#3F3D56"/>
<path d="M248.245 762.199C271.54 762.199 290.424 743.317 290.424 720.024C290.424 696.732 271.54 677.849 248.245 677.849C224.951 677.849 206.066 696.732 206.066 720.024C206.066 743.317 224.951 762.199 248.245 762.199Z" fill="#F9DE26"/>
<path d="M444.076 543.793C467.371 543.793 486.255 524.911 486.255 501.618C486.255 478.326 467.371 459.443 444.076 459.443C420.781 459.443 401.897 478.326 401.897 501.618C401.897 524.911 420.781 543.793 444.076 543.793Z" fill="#CCCCCC"/>
<path d="M639.907 653.749C663.202 653.749 682.086 634.867 682.086 611.574C682.086 588.282 663.202 569.399 639.907 569.399C616.612 569.399 597.728 588.282 597.728 611.574C597.728 634.867 616.612 653.749 639.907 653.749Z" fill="#E6E6E6"/>
<path d="M835.738 316.35C859.033 316.35 877.917 297.467 877.917 274.175C877.917 250.882 859.033 232 835.738 232C812.443 232 793.559 250.882 793.559 274.175C793.559 297.467 812.443 316.35 835.738 316.35Z" fill="#F9DE26"/>
<path d="M1212.34 630.455C1235.63 630.455 1254.51 611.573 1254.51 588.28C1254.51 564.988 1235.63 546.105 1212.34 546.105C1189.04 546.105 1170.16 564.988 1170.16 588.28C1170.16 611.573 1189.04 630.455 1212.34 630.455Z" fill="#F9DE26"/>
<path d="M1197.42 916.824C1213.21 918.726 1253.58 904.325 1255.77 926.233C1276.55 987.394 1275.93 1221.84 1275.93 1221.84L1244.29 1223.35C1244.29 1223.35 1219.02 1037.07 1207.06 997.213C1201.07 1045.65 1202.12 1230.88 1202.12 1230.88L1173.49 1232.39C1173.49 1232.39 1147.82 1074.66 1147.67 1028.36C1144.55 994.451 1152.21 944.199 1148.93 911.417C1164.58 916.377 1181.06 918.215 1197.42 916.824L1197.42 916.824Z" fill="#3F3D56"/>
<path d="M988.636 1262.96V603.593C988.636 595.137 994.585 588.28 1001.92 588.28H1061.21C1068.55 588.28 1074.5 595.135 1074.5 603.593V1264.68L988.636 1262.96Z" fill="#3F3D56"/>
<path d="M1143.72 739.388C1137.39 726.446 1129.65 714.237 1120.66 702.982C1118.78 700.784 1117.06 698.448 1115.53 695.993C1112.3 690.375 1111.33 683.778 1109.28 677.632C1103.56 660.401 1089.28 646.558 1085.8 628.74C1084.53 622.263 1073.84 641.088 1076.65 649.119C1081.67 663.654 1082.32 679.048 1088.71 693.086C1095.09 707.125 1102.59 720.591 1108.11 734.945C1111.24 743.094 1113.74 751.514 1118.34 759.045C1122.93 766.576 1130.1 772.887 1138.76 774.017C1138.7 768.557 1139.53 763.124 1141.22 757.93C1143.1 751.996 1146.45 745.007 1143.72 739.388Z" fill="#9E616A"/>
<path d="M1238.49 749.149C1238.1 738.499 1239.76 727.873 1243.38 717.849C1244.77 714.008 1246.4 710.107 1246.26 706.025C1246.06 702.229 1244.26 698.75 1242.61 695.316C1236.95 683.492 1232.97 670.96 1229.06 658.458L1221.52 634.885C1219.07 633.084 1233.41 632.46 1236.47 636.693C1246.47 650.58 1254.05 666.531 1261.97 681.699C1263.99 685.314 1265.72 689.087 1267.12 692.981C1269.06 699.292 1269.97 705.872 1269.83 712.472C1269.83 724.808 1268.21 737.099 1266.52 749.33C1265.45 756.997 1264.05 765.341 1258.25 770.417C1252.22 762.705 1246.17 755.174 1238.49 749.149Z" fill="#9E616A"/>
<path d="M1198.66 736.945C1215.92 736.945 1229.92 722.952 1229.92 705.691C1229.92 688.429 1215.92 674.436 1198.66 674.436C1181.39 674.436 1167.4 688.429 1167.4 705.691C1167.4 722.952 1181.39 736.945 1198.66 736.945Z" fill="#9E616A"/>
<path d="M1173.25 674.508C1172.9 673.56 1172.82 672.532 1173.02 671.541C1173.22 670.55 1173.7 669.635 1174.39 668.9C1175.17 668.285 1176.21 668.056 1177.05 667.469C1178.24 666.469 1179.21 665.237 1179.91 663.849C1182.04 660.861 1185.17 658.726 1188.73 657.823C1192.29 656.919 1196.05 657.306 1199.35 658.914C1204.52 661.617 1207.64 667.03 1212.23 670.675C1214.56 672.564 1217.27 673.965 1219.62 675.854C1224.32 679.913 1227.66 685.317 1229.19 691.335C1230.71 697.312 1231.6 703.434 1231.84 709.598C1232.09 711.447 1232.01 713.325 1231.63 715.15C1231.15 716.68 1230.44 718.128 1229.52 719.442C1224.8 726.596 1218.58 733.092 1210.78 736.784C1202.98 740.475 1193.49 741.076 1185.8 737.213C1185.03 736.9 1184.36 736.368 1183.89 735.682C1183.45 734.637 1183.34 733.483 1183.59 732.377C1184 728.005 1183.14 723.605 1181.1 719.715C1179.66 716.854 1177.52 714.393 1176.37 711.432C1175.31 708.117 1174.85 704.637 1175.03 701.159C1174.89 692.15 1175.5 683.179 1173.25 674.508Z" fill="#2D293D"/>
<path d="M205.312 1263.85V945.523C205.312 941.441 211.261 938.13 218.598 938.13H277.89C285.227 938.13 291.176 941.444 291.176 945.523V1264.68L205.312 1263.85Z" fill="#3F3D56"/>
<path d="M1366.5 1268H132.506C132.107 1268 131.724 1267.84 131.441 1267.56C131.159 1267.28 131 1266.89 131 1266.49C131 1266.09 131.159 1265.71 131.441 1265.43C131.724 1265.15 132.107 1264.99 132.506 1264.99H1366.49C1366.89 1264.99 1367.28 1265.15 1367.56 1265.43C1367.84 1265.71 1368 1266.09 1368 1266.49C1368 1266.89 1367.84 1267.28 1367.56 1267.56C1367.28 1267.84 1366.89 1268 1366.49 1268H1366.5Z" fill="#E6E6E6"/>
<path d="M792.804 1262.73V514.476C792.804 504.879 798.753 497.1 806.091 497.1H865.382C872.72 497.1 878.669 504.879 878.669 514.476V1264.68L792.804 1262.73Z" fill="#F9DE26"/>
<path d="M1075.78 645.262C1083.27 645.262 1089.34 639.193 1089.34 631.706C1089.34 624.219 1083.27 618.15 1075.78 618.15C1068.29 618.15 1062.22 624.219 1062.22 631.706C1062.22 639.193 1068.29 645.262 1075.78 645.262Z" fill="#A0616A"/>
<path d="M1226.42 639.237C1233.91 639.237 1239.98 633.168 1239.98 625.681C1239.98 618.194 1233.91 612.125 1226.42 612.125C1218.93 612.125 1212.86 618.194 1212.86 625.681C1212.86 633.168 1218.93 639.237 1226.42 639.237Z" fill="#A0616A"/>
<path d="M1259.37 793.493C1260.69 792.282 1271.47 729.216 1271.41 727.794C1271.24 720.025 1247.53 711.15 1242.79 714.238C1238.31 717.151 1230.52 750.575 1225.5 756.662L1220.19 747.376H1178.01L1175.46 752.123C1169.92 748.789 1164.94 745.715 1163.17 744.698C1162.56 744.285 1161.89 743.958 1161.19 743.727C1156.81 742.746 1152.69 740.813 1149.14 738.063C1145.68 735.397 1129.6 707.475 1125.29 708.213C1120.42 709.027 1104.01 723.215 1104.2 736.832C1106.27 736.788 1133.14 790.526 1133.52 792.529C1135.59 800.994 1142.4 924.446 1144.6 930.2C1154.73 929.221 1146.73 927.474 1156.54 930.2C1167.1 933.137 1178.25 929.959 1189.14 928.784C1193.67 928.335 1198.23 928.134 1202.78 928.182C1219.36 928.257 1243.01 929.176 1259.05 933.288C1259.14 922.774 1249.9 900.03 1246.49 890.104C1246.04 887.137 1246.05 884.119 1246.53 881.157C1246.97 877.527 1255.79 797.507 1259.37 793.493Z" fill="#E6E6E6"/>
<path d="M273.414 239.064C228.634 239.064 192.203 275.504 192.203 320.295C192.203 365.087 228.634 401.527 273.414 401.527C318.194 401.527 354.625 365.087 354.625 320.295C354.625 275.504 318.194 239.064 273.414 239.064V239.064ZM273.414 400.35C229.283 400.35 214.565 366.204 214.565 322.061C214.565 277.919 229.283 240.241 273.414 240.241C317.545 240.241 353.448 276.153 353.448 320.295C353.448 364.437 317.545 400.35 273.414 400.35V400.35Z" fill="#3F3D56"/>
<path d="M321.534 324.305L279.369 282.049C279.247 281.887 279.117 281.73 278.97 281.582C278.086 280.697 276.926 280.26 275.768 280.268C274.61 280.26 273.449 280.697 272.566 281.582C272.419 281.73 272.289 281.887 272.166 282.049L230.001 324.305C228.251 326.059 228.251 328.903 230.001 330.657C231.752 332.411 234.589 332.411 236.339 330.657L271.286 295.634V369.959C271.286 372.439 273.293 374.45 275.768 374.45C278.243 374.45 280.249 372.439 280.249 369.959V295.634L315.196 330.657C316.947 332.411 319.784 332.411 321.534 330.657C323.284 328.903 323.284 326.059 321.534 324.305V324.305Z" fill="#F9DE26"/>
</g>
<defs>
<clipPath id="clip0_23_5">
<rect width="1500" height="1500" fill="white"/>
</clipPath>
</defs>
</svg>
